# xmcd
#
# Track frame offsets:
# 150
# 17693
# 35331
# 52820
# 70333
# 87920
# 105083
# 127600
# 143162
# 159692
# 182068
# 197628
# 213956
# 228716
# 244248
# 260521
# 277594
# 305467
#
# Disc length: 4301 seconds
#
#
# Revision: 1
# Processed by: cddbd v1.5.1PL0 Copyright (c) Steve Scherf et al.
# Submitted via: FreeRIP 2.90 
#
DISCID=e910cb12
DTITLE=Various Artist - The Best 100% Blacki
DYEAR=2004
DGENRE=Hip-Hop
TTITLE0=Lil Flip - Game Over
TTITLE1=Twista feat Kane West - Overnight Celebrity
TTITLE2=Petey Pablo - Freek - A - Leek
TTITLE3=Nick Cannon feat R Kelly - Gigilo
TTITLE4=Dilated Peoples - This Way
TTITLE5=Houston feat Chingy and Nate Dogg - I Like That
TTITLE6=D12 feat Eminem - My Band
TTITLE7=Beyonce - Naughty Girl
TTITLE8=Kanye West feat Syleena Johnson - All Falls Down
TTITLE9=Black Eyed Peas - Shut Up
TTITLE10=Cristina Aguilera Will The Real Slim Shady Please Shut Up
TTITLE11=Brandy feat Kanye West - Talk About Our Leve
TTITLE12=Christina Milian - Dip It Low
TTITLE13=Khia - My Neck, My Beck
TTITLE14=Black Eyed Peas - Hey Mamma
TTITLE15=Shaggy and Sean Paul - Sexy Lady
TTITLE16=OutKast - Roses
TTITLE17=Alicia Keys - If Ain't Got You
EXTD=
EXTT0=
EXTT1=
EXTT2=
EXTT3=
EXTT4=
EXTT5=
EXTT6=
EXTT7=
EXTT8=
EXTT9=
EXTT10=
EXTT11=
EXTT12=
EXTT13=
EXTT14=
EXTT15=
EXTT16=
EXTT17=
PLAYORDER=
